<svg xmlns="http://www.w3.org/2000/svg" width="298" height="198" viewBox="0 0 298 198">
    <g data-name="Group 11896">
        <g data-name="Group 11895">
            <path data-name="Rectangle 4354" transform="translate(0 .001)" style="fill:none" d="M0 0h298v198H0z"/>
        </g>
        <g data-name="Group 11892">
            <g data-name="Group 11893">
                <path data-name="Path 34779" d="M206.394 447.239s-31.511-33.832-5.329-70.461c23.23-32.5 50.314-30.278 70.186-17.089 8.463 5.617 32.864.692 53.633-32.377 28.322-45.1 126.5-17.746 108.6 51.638-8.663 33.577 26.364 34.8 8.516 68.361z" transform="translate(-167.425 -272.089)" style="fill:#fbe3c7"/>
                <g data-name="Group 11892">
                    <path data-name="Path 36353" d="M1671.815 1230.942c4.214-1.321 9.636-3.472 6.688-5.086-3.158-1.729-7.185 1.94-9.369 4.368q-.169-.029-.341-.053a12.319 12.319 0 0 0-1.7-.119c4.162-6.671 8.8-15.551 4.851-16.68-4.26-1.217-7.313 9.581-8.819 17.145-4.163.9-8.642 2.924-13.308 4.27-1.649-6-5.445-14.94-13.4-14.743-8.352.207 2.076 9.915 9.1 15.733a23.014 23.014 0 0 1-4.755.3 22.664 22.664 0 0 0-16.612 6.448h54.851c2.064-3.265-1.056-9.286-7.186-11.583z" transform="translate(-1468.843 -1067.647)" style="fill:#90c73a"/>
                    <g data-name="Group 11875">
                        <path data-name="Path 36354" d="M1176.614 234.989s-3.823-4.17-5-4.309-6.047 2.192-6.325 3.111 5.352-.92 5.665 0 .66 1.545 2.259 1.615a6.746 6.746 0 0 1 2.989.973z" transform="translate(-1066.599 -206.321)" style="fill:#ffb27d"/>
                        <path data-name="Path 36355" d="M1289.2 1388.889c-1.215-.742-.524-6.273-.524-6.273s5.66-4.528 6.439-1.061 5.378 5.024 8 5.448a2.809 2.809 0 0 1 2.54 1.886z" transform="translate(-1174.598 -1214.011)" style="fill:#233862"/>
                        <path data-name="Path 36356" d="M1163.552 862.517c-1.45-.547-9.527-19.935-9.191-26.23.04-.747-.106-6.873-.336-8.142a82.378 82.378 0 0 0-.708-3.418 284.545 284.545 0 0 0-1.6-6.587c-1.717-6.75-3.9-14.776-5.414-21.166 2.708-6.072 6.178-11.387 9.361-13.2 2.271.277 4.46.7 6.082 1.048a28.516 28.516 0 0 1 2.975 1.962c.252 1.259.619 3.359.917 6.064.191 1.769.353 3.8.428 6.018.539 15.748-2.214 32.861 4.806 60.794.191.778-5.072 3.705-7.32 2.857z" transform="translate(-1049.965 -691.155)" style="fill:#ff5148"/>
                        <path data-name="Path 36357" d="M1165.632 792.847c-1.17 5.855-3.985 18.369-13.92 25.294-1.717-6.75-3.9-14.776-5.414-21.166 2.708-6.072 6.178-11.387 9.361-13.2 2.271.277 4.46.7 6.082 1.048a28.516 28.516 0 0 1 2.975 1.962c.251 1.257.619 3.357.916 6.062z" transform="translate(-1049.965 -691.155)" style="fill:#e92e43"/>
                        <path data-name="Path 36358" d="m1132.471 370.724-.006.982s.268 3.072-3.515 3.52-6.648-1.2-6.545-3.568a27.816 27.816 0 0 0 .74-4.614 10.684 10.684 0 0 0-.134-1.839l7.329-.146 2.159.353z" transform="translate(-1029.018 -324.119)" style="fill:#ffb27d"/>
                        <path data-name="Path 36359" d="m1136.818 365.411-.028 5.313a6.2 6.2 0 0 1-2.642.583c-3.369 0-5.546-2.47-6.684-4.263a10.708 10.708 0 0 0-.134-1.839l7.329-.146z" transform="translate(-1033.338 -324.119)" style="fill:#e8945b"/>
                        <path data-name="Path 36360" d="M1124.753 278.792s-9.387 1.9-10.478-3.968-3.037-9.568 2.91-11.027 7.531.562 8.372 2.43 1.609 11.92-.804 12.565z" transform="translate(-1020.845 -234.918)" style="fill:#ffb27d"/>
                        <path data-name="Path 36361" d="M1092.1 1412.286a20.939 20.939 0 0 0-1.325-4.431c-.812-1.625-5.982-.591-5.982-.591s-1.034.886-1.256 5.022z" transform="translate(-994.947 -1237.408)" style="fill:#233862"/>
                        <path data-name="Path 36362" d="M1079.241 791.787s-5.146 22.926-6.795 33.275c-.617 3.872-1.9 16.277-2.1 20.193-.276 5.374-2.048 21.82-2.048 21.82s-2.989-1.889-7.423-.126c0 0-1.12-7.372-1.833-22.813-.209-4.526.666-11.325.56-13.534-.522-10.858-3.991-38.933-1.233-40.735s20.872 1.92 20.872 1.92z" transform="translate(-971.962 -696.065)" style="fill:#ff5148"/>
                        <path data-name="Path 36363" d="M1108.98 237.631a19.673 19.673 0 0 1-5.705-1.544c-2.506-1.09-5.667.11-6.694.651a1.528 1.528 0 0 1 .25-.617 1.378 1.378 0 0 0-.529.783c-.047.035-.069.059-.056.067a1.766 1.766 0 0 0-.858.056s.235-.034.319.117a.141.141 0 0 0 .038.042c-3.909 1.889-4.27 8.067-3.012 9.5a31.363 31.363 0 0 1 3.328 5.593 3.32 3.32 0 0 0 .387-2.428c-.275-1.513 1.032-1.513 2.683-2.2s.275-2.614 1.72-3.784 6.742-.482 6.673-1.376c1.966-.722 1.456-4.659 1.456-4.86z" transform="translate(-1002.444 -210.678)" style="fill:#3a1593"/>
                        <path data-name="Path 36364" d="M1064.585 249.2a2.659 2.659 0 0 0-1.266 1.439 2.472 2.472 0 0 0-.113 2.211s9.935 9.01 9.288 10.65c-.337.857-8.034 5.37-11.232 7.217-1.315-.11-2.333-.1-2.365-.1s-2.176 6.629-9.967-.517c-1.368 1.991-11.976 6.879-10.135 15.317q.65 2.974 1.13 5.617c2.189 11.954 2.018 19.007 1.591 22.9-.332 3.035-1.591 3.341-.465 4.148a33.5 33.5 0 0 0 6.29 1.831 62.139 62.139 0 0 0 12.186 1.224c8.014.05 11.048-2.711 11.048-2.711 2.122-2.075-2.075-10.24-1.739-16.134.173-3.024-.017-13.376-.047-18.132l.007-.007c.384-.421 12.109-13.321 14.417-20.643a9.674 9.674 0 0 0 .274-1.063c.704-3.613-18.902-13.247-18.902-13.247z" transform="translate(-955.542 -222.561)" style="fill:#ffce1a"/>
                        <path data-name="Path 36365" d="M1051.06 591.2c.426-3.89.6-10.942-1.591-22.9q.225-.713.446-1.369a2.09 2.09 0 0 1 4.005.141c1.618 6.262 3.075 16.895-2.86 24.128z" transform="translate(-965.087 -499.833)" style="fill:#ffab35"/>
                        <path data-name="Path 36366" d="M1040.639 702.2s4.872-2.946 6.383-2.572 4.786 1.8 4.583 2.668-4.009 1.465-4.671 1.362a3.255 3.255 0 0 0-2.165.392c-.434.374-3.887.514-4.308-.5s.178-1.35.178-1.35z" transform="translate(-957.058 -617.37)" style="fill:#ffb27d"/>
                        <path data-name="Path 36367" d="M955.6 418.533s-5.974.433-9.219 2.335c-2.1 1.231-14.27 20.621-14.27 23.474s12.779 12.978 12.779 12.978 2.372.788 2.456-2.989c0 0-6.375-9.423-6.039-10.514.211-.685 9.606-8.222 9.606-8.222z" transform="translate(-862.217 -370.994)" style="fill:#ffce1a"/>
                        <path data-name="Path 36368" d="M1296.12 365.085c-2.308 7.323-14.033 20.222-14.417 20.643l-.007.007c-.033-.129-1-3.819 1.308-6.458 2.345-2.686 10.455-9.418 13.116-14.192z" transform="translate(-1168.446 -324.142)" style="fill:#ffab35"/>
                        <g data-name="Group 11874">
                            <path data-name="Path 36369" d="M1104.173 418.724c-.026-.518 2.426-1.233 2.426-1.233s2.806 3.891 7.429 3.958c0 0-1.317 2.564-2.87 3.228 0 0-6.833-2.877-6.985-5.953z" transform="translate(-1013.038 -370.081)" style="fill:#ffab35"/>
                            <path data-name="Path 36370" d="M1184.023 427.168s2.449-1.452 2.458-3.026c0 0 1.582-.2 2.273.569 0 0 .581 2.7-.19 4.264 0 .001-3.527-.537-4.541-1.807z" transform="translate(-1083.033 -375.891)" style="fill:#ffab35"/>
                            <path data-name="Path 36371" d="M1192.542 492.481a5.118 5.118 0 0 1-1.455 3.389l-1.4 1.43a.861.861 0 0 1-1.264-.035l-1.941-2.216a3.072 3.072 0 0 1-.757-2.155c.079-1.758.22-5.144.3-8.409.069-2.646.1-5.214.032-6.772-.22-4.974-2.035-20.778-2.035-20.778h1.2a63.932 63.932 0 0 1 5.27 14.293 55.494 55.494 0 0 1 1.165 6.485 120.932 120.932 0 0 1 .885 14.768z" transform="translate(-1083.038 -404.656)" style="fill:#3a1593"/>
                            <path data-name="Path 36372" d="m1169.563 441.277 3.321-.8a.5.5 0 0 1 .422.579 4.227 4.227 0 0 1-1.344 2.248c-.409.13-3.184-.932-2.399-2.027z" transform="translate(-1070.236 -390.233)" style="fill:#6c31ff"/>
                            <path data-name="Path 36373" d="M1104.173 412.6c-.026-.518 2.426-1.233 2.426-1.233s2.806 3.891 7.429 3.958c0 0-1.317 2.564-2.87 3.228 0 .003-6.833-2.876-6.985-5.953z" transform="translate(-1013.038 -364.715)" style="fill:#ffce1a"/>
                            <path data-name="Path 36374" d="M1184.023 421.784s2.449-1.452 2.458-3.026c0 0 1.582-.2 2.273.569 0 0 .581 2.7-.19 4.265 0 0-3.527-.538-4.541-1.808z" transform="translate(-1083.033 -371.171)" style="fill:#ffce1a"/>
                            <path data-name="Path 36375" d="M1204.589 593.99a5.117 5.117 0 0 1-1.455 3.389l-1.4 1.43a.861.861 0 0 1-1.264-.035l-1.94-2.216a3.074 3.074 0 0 1-.757-2.156c.079-1.758.22-5.143.3-8.409 3.1-3.873 4.168-9.057 4.462-13.257a55.492 55.492 0 0 1 1.165 6.485 120.932 120.932 0 0 1 .889 14.769z" transform="translate(-1095.084 -506.166)" style="fill:#3a1593"/>
                        </g>
                    </g>
                    <g data-name="Group 11883">
                        <path data-name="Path 36379" d="M1887.992 542.982v108.644a1.726 1.726 0 0 1-1.657 1.778h-1.657a1.6 1.6 0 0 1-1.167-.52 1.84 1.84 0 0 1-.489-1.258V542.982a1.806 1.806 0 0 1 .791-1.512 1.553 1.553 0 0 1 .866-.265h1.657a1.725 1.725 0 0 1 1.656 1.777z" transform="translate(-1695.76 -478.525)" style="fill:#3a1593"/>
                        <path data-name="Path 36380" d="M1884.3 544.61v108.643a1.81 1.81 0 0 1-.79 1.512 1.84 1.84 0 0 1-.489-1.258V544.864a1.806 1.806 0 0 1 .791-1.512 1.84 1.84 0 0 1 .488 1.258z" transform="translate(-1695.76 -480.407)" style="fill:#6c31ff"/>
                        <path data-name="Path 36381" d="m1674.518 899.128-9.17 6.18 8.315 7.29 20.579-1.3v-8.313z" transform="translate(-1504.953 -792.272)" style="fill:#3a1593"/>
                        <path data-name="Path 36382" d="M1887.928 937.928a.95.95 0 0 0 .067.788c.131.182.313.124.406-.129a.95.95 0 0 0-.067-.788c-.134-.182-.312-.124-.406.129z" transform="translate(-1700.013 -826.077)" style="fill:#6c31ff"/>
                        <path data-name="Path 36383" d="M1887.928 977.753a.95.95 0 0 0 .067.788c.131.182.313.124.406-.129a.95.95 0 0 0-.067-.788c-.134-.182-.312-.124-.406.129z" transform="translate(-1700.013 -860.987)" style="fill:#6c31ff"/>
                        <g data-name="Group 11878">
                            <path data-name="Path 36384" d="m1938.845 763.063 14.329 6.169-13.778 7.317-32.973-1.145v-10.293z" transform="translate(-1716.273 -673.001)" style="fill:#3a1593"/>
                            <path data-name="Path 36385" d="M2169.111 763.063h2.082l14.329 6.169h-2.082z" transform="translate(-1946.539 -673.001)" style="fill:#6c31ff"/>
                            <path data-name="Path 36386" d="M2173.572 820.364h1.109l14.75-7.317h-2.082z" transform="translate(-1950.45 -716.816)" style="fill:#6c31ff"/>
                            <path data-name="Path 36387" d="M1919.094 790.032a1.217 1.217 0 0 1-.086 1.011c-.167.233-.4.159-.521-.166a1.217 1.217 0 0 1 .085-1.011c.168-.233.401-.159.522.166z" transform="translate(-1726.786 -696.377)" style="fill:#6c31ff"/>
                            <path data-name="Path 36388" d="M1919.094 841.124a1.218 1.218 0 0 1-.086 1.011c-.167.233-.4.159-.521-.166a1.216 1.216 0 0 1 .085-1.011c.168-.234.401-.158.522.166z" transform="translate(-1726.786 -741.163)" style="fill:#6c31ff"/>
                        </g>
                        <g data-name="Group 11879">
                            <path data-name="Path 36389" d="m1541.969 618.464-14.329 6.169 13.778 7.317 32.973-1.146v-10.291z" transform="translate(-1384.241 -546.249)" style="fill:#3a1593"/>
                            <path data-name="Path 36390" d="M1527.186 618.464h-2.086l-14.329 6.169h2.082z" transform="translate(-1369.457 -546.249)" style="fill:#6c31ff"/>
                            <path data-name="Path 36391" d="M1526.635 675.765h-1.11l-14.75-7.317h2.082z" transform="translate(-1369.457 -590.064)" style="fill:#6c31ff"/>
                            <path data-name="Path 36392" d="M1888.445 645.434a1.218 1.218 0 0 0 .086 1.011c.168.233.4.159.521-.166a1.219 1.219 0 0 0-.086-1.011c-.166-.234-.401-.159-.521.166z" transform="translate(-1700.452 -569.625)" style="fill:#6c31ff"/>
                            <path data-name="Path 36393" d="M1888.445 696.526a1.218 1.218 0 0 0 .086 1.011c.168.234.4.159.521-.166a1.219 1.219 0 0 0-.086-1.011c-.166-.234-.401-.16-.521.166z" transform="translate(-1700.452 -614.411)" style="fill:#6c31ff"/>
                        </g>
                        <path data-name="Path 36394" d="M1662.048 899.128h-1.187l-9.738 6.235h1.756z" transform="translate(-1492.483 -792.272)" style="fill:#6c31ff"/>
                        <path data-name="Path 36395" d="M1661.193 956.881h-1.6l-8.471-7.235h1.756z" transform="translate(-1492.483 -836.555)" style="fill:#6c31ff"/>
                        <path data-name="Path 36396" d="M1865.468 1319.223v12.261h-12.35v-12.309a4.415 4.415 0 0 1 3.957-4.392 4.521 4.521 0 0 1 .458-.024h3.472a4.463 4.463 0 0 1 4.463 4.464z" transform="translate(-1669.547 -1156.606)" style="fill:#3a1593"/>
                        <path data-name="Path 36397" d="M1861.074 1319.39v12.262h-7.957v-12.309a4.415 4.415 0 0 1 3.957-4.392 4.463 4.463 0 0 1 4 4.439z" transform="translate(-1669.547 -1156.773)" style="fill:#6c31ff"/>
                        <g data-name="Group 11882">
                            <g data-name="Group 11880">
                                <path data-name="Path 36398" d="M1891.9 510.238v-.428h-1.091v.007a1.247 1.247 0 0 0-.772.36 1.254 1.254 0 0 0 .009 1.8 1.252 1.252 0 0 0 .9.376h.949v-.428a1.322 1.322 0 0 0 0-1.688z" transform="translate(-1701.581 -451.005)" style="fill:#6c31ff"/>
                                <path data-name="Path 36399" d="M1875.679 421.835a4.34 4.34 0 0 0-2.9-.985 4.6 4.6 0 0 0-2.114.51 3.754 3.754 0 0 0-1.558 1.442 2.231 2.231 0 0 0-.34 1.146 1.043 1.043 0 0 0 .278.743.928.928 0 0 0 .708.3h.949s-.012-.356-.012-.6l.657-.887a2.08 2.08 0 0 1 2.606-.116 1.387 1.387 0 0 1 .493 1.137 1.665 1.665 0 0 1-.52 1.307 3.567 3.567 0 0 1-1.29.627 2.365 2.365 0 0 0-.9.439.912.912 0 0 0-.224.672v1.791a1.385 1.385 0 0 0 .287.9.973.973 0 0 0 .806.358h.949v-.543a1.435 1.435 0 0 0 .107-.281 8.6 8.6 0 0 0 .071-1.469 3.975 3.975 0 0 0 2.32-1.263 3.613 3.613 0 0 0 .851-2.463 3.479 3.479 0 0 0-1.224-2.765z" transform="translate(-1683.263 -373.025)" style="fill:#6c31ff"/>
                            </g>
                            <g data-name="Group 11881">
                                <path data-name="Path 36400" d="M1884.59 424.593a3.614 3.614 0 0 1-.851 2.463 3.976 3.976 0 0 1-2.32 1.263 8.567 8.567 0 0 1-.071 1.469 1 1 0 0 1-1.057.824.973.973 0 0 1-.806-.358 1.387 1.387 0 0 1-.287-.9v-1.791a.911.911 0 0 1 .224-.672 2.364 2.364 0 0 1 .9-.439 3.565 3.565 0 0 0 1.29-.627 1.664 1.664 0 0 0 .52-1.307 1.387 1.387 0 0 0-.493-1.137 2.081 2.081 0 0 0-2.606.116l-.716.967a1.076 1.076 0 0 1-.878.52.928.928 0 0 1-.708-.3 1.043 1.043 0 0 1-.277-.743 2.23 2.23 0 0 1 .34-1.146 3.753 3.753 0 0 1 1.558-1.442 4.6 4.6 0 0 1 2.114-.51 4.339 4.339 0 0 1 2.9.985 3.479 3.479 0 0 1 1.224 2.765zm-3.009 8.508a1.245 1.245 0 0 1-.358.9 1.2 1.2 0 0 1-.9.367 1.252 1.252 0 0 1-.9-.376 1.254 1.254 0 0 1-.009-1.8 1.261 1.261 0 0 1 .914-.367 1.2 1.2 0 0 1 .9.367 1.245 1.245 0 0 1 .353.908z" transform="translate(-1690.007 -373.025)" style="fill:#3a1593"/>
                            </g>
                        </g>
                    </g>
                    <g data-name="Group 11890">
                        <path data-name="Rectangle 5733" d="M4.9 0h23.026a4.9 4.9 0 0 1 4.9 4.9v14.038a4.9 4.9 0 0 1-4.9 4.9H4.9a4.9 4.9 0 0 1-4.9-4.9V4.9A4.9 4.9 0 0 1 4.9 0z" transform="translate(49.49 151.043)" style="fill:#6c31ff"/>
                        <path data-name="Rectangle 5734" d="M4.9 0h23.025a4.9 4.9 0 0 1 4.9 4.9v14.039a4.9 4.9 0 0 1-4.9 4.9H4.9a4.9 4.9 0 0 1-4.9-4.9V4.9A4.9 4.9 0 0 1 4.9 0z" transform="translate(47 151.043)" style="fill:#3a1593"/>
                        <g data-name="Group 11889">
                            <path data-name="Path 36402" d="M908.147 1348.78a7.733 7.733 0 0 1 5.494-2.886 7.291 7.291 0 0 1 5.64 2.886l-.87.058a5.752 5.752 0 0 0-4.562-1.869 5.452 5.452 0 0 0-4.656 1.811 2.562 2.562 0 0 1-1.046 0z" transform="translate(-850.72 -1197.737)" style="fill:#6c31ff"/>
                        </g>
                        <path data-name="Rectangle 5735" d="M4.9 0h23.025a4.9 4.9 0 0 1 4.9 4.9v.988a4.9 4.9 0 0 1-4.9 4.9H4.9A4.9 4.9 0 0 1 0 5.885V4.9A4.9 4.9 0 0 1 4.9 0z" transform="translate(47 151.798)" style="fill:#6c31ff"/>
                        <path data-name="Rectangle 5736" d="M4.9 0h23.025a4.9 4.9 0 0 1 4.9 4.9v.988a4.9 4.9 0 0 1-4.9 4.9H4.9A4.9 4.9 0 0 1 0 5.885V4.9A4.9 4.9 0 0 1 4.9 0z" transform="translate(47 151.043)" style="fill:#3a1593"/>
                        <path data-name="Path 36403" d="M916.555 1366.072a.83.83 0 1 1 .83.83.83.83 0 0 1-.83-.83z" transform="translate(-854.464 -1206.352)" style="fill:#6c31ff"/>
                    </g>
                    <g data-name="Group 11892">
                        <path data-name="Path 36405" d="M2538.511 1871.2c1.04-6.175.446-13.248-4.241-17.88-.768-.756-3.056-1.785-3.989-.785-.58.625-.136 1.826.149 2.479 1.277 2.933 3.366 5.4 5.133 8.035 1.623 2.4 1.893 6 1.578 8.836" transform="translate(-2511.469 -1703.144)" style="fill:#7fab40"/>
                        <path data-name="Path 36406" d="M2568.539 1868.366c-.732-5.222-.513-12.432 3.3-16.516a13.226 13.226 0 0 1 3.841-2.953c2.174-1.062 4.892-.315 3.348 2.544-.893 1.656-2.379 2.468-3.583 3.794a23.067 23.067 0 0 0-3.868 6.1 16.158 16.158 0 0 0-1.424 7.9" transform="translate(-2541.149 -1700.28)" style="fill:#90c73e"/>
                        <path data-name="Path 36407" d="M2508.743 1890.062a20.837 20.837 0 0 0-2.694-8.015 11.946 11.946 0 0 0-6.473-5.247c-2.022-.614-4.634-.484-6 1.355s-.011 3.988 1.908 4.625c2.255.743 4.658 1 6.861 1.872s4.3 2.622 4.627 4.973c.075.538-.072.491-.021 1.033" transform="translate(-2482.743 -1722.058)" style="fill:#90c73e"/>
                        <path data-name="Path 36408" d="M2576.11 1890.665a20.862 20.862 0 0 1 2.694-8.015 11.938 11.938 0 0 1 6.473-5.247 7.017 7.017 0 0 1 5.579.518 2.642 2.642 0 0 1 1.228 2.377c-.2 3.071-5.314 3.794-7.41 4.716-1.875.83-4.089 1.67-5.531 3.176a4.8 4.8 0 0 0-1.366 4.535" transform="translate(-2547.289 -1722.519)" style="fill:#90c73e"/>
                        <path data-name="Path 36409" d="M2528.217 1927.14a.558.558 0 0 0-.56.589 9.867 9.867 0 0 0 19.7 0 .56.56 0 0 0-.56-.589z" transform="translate(-2509.649 -1761.417)" style="fill:#f0534c"/>
                    </g>
                    <g data-name="Group 1267">
                        <g data-name="Group 1265">
                            <g data-name="Group 1258">
                                <path data-name="Path 7691" d="M65.734 317.169c2.007.341 2.916 2.8 2.727 4.81s-1.023 4.015-.8 6.022c.265 2.575 2.235 4.734 2.462 7.31.265 3.03-1.894 5.719-2.5 8.673a27.6 27.6 0 0 1-.8 4.355 5.432 5.432 0 0 1-10.491-1.894c-.038-2.31 1.4-4.507 1.212-6.817-.114-1.7-1.136-3.333-.909-5.037.265-2.045 2.121-3.484 2.8-5.416s.038-4.053.265-6.1c.341-3.636 2.386-6.173 6.022-5.908" transform="translate(210.85 -189.178)" style="fill:#90c73a"/>
                            </g>
                            <g data-name="Group 1259">
                                <path data-name="Path 7692" d="M52.588 363.9c.341 3.371-1.136 7.348-2.878 10.264a15.965 15.965 0 0 1-7.575 6.552 1.137 1.137 0 0 1-1.1.038 1.149 1.149 0 0 1-.265-.871A16.6 16.6 0 0 1 52.588 363.9" transform="translate(234.261 -218.222)" style="fill:#80ab23"/>
                            </g>
                            <g data-name="Group 1260" style="opacity:.1">
                                <path data-name="Path 7693" d="M286.849 145.678c.341 3.371-1.136 7.348-2.878 10.264a15.965 15.965 0 0 1-7.575 6.552 1.137 1.137 0 0 1-1.1.038 1.149 1.149 0 0 1-.265-.871 16.6 16.6 0 0 1 11.818-15.983"/>
                            </g>
                            <g data-name="Group 1262">
                                <g data-name="Group 1261">
                                    <path data-name="Path 7694" d="M52.2 397.677a1.966 1.966 0 0 1 .114-.189 4.406 4.406 0 0 0 .227-.568q.284-.739.909-2.045c.757-1.7 1.932-4.015 3.371-6.514a68.494 68.494 0 0 1 4.015-6.1c.568-.757 1.023-1.363 1.326-1.78.151-.189.265-.341.379-.492a1.963 1.963 0 0 0 .114-.189l-.151.151c-.114.114-.227.265-.379.454-.341.417-.8.985-1.363 1.742a60.488 60.488 0 0 0-4.053 6.1 55.617 55.617 0 0 0-3.3 6.552 48.26 48.26 0 0 0-.833 2.045c-.076.227-.151.417-.189.568-.187.188-.187.265-.187.265z" transform="translate(219.915 -228.1)" style="fill:#3a1393"/>
                                </g>
                            </g>
                            <g data-name="Group 1264">
                                <g data-name="Group 1263">
                                    <path data-name="Path 7695" d="M76.372 341.9a1.189 1.189 0 0 0-.038.341c0 .227-.038.53-.076.947-.038.833-.114 2.007-.227 3.409-.189 2.878-.454 6.893-.757 11.286s-.606 8.408-.833 11.286c-.114 1.439-.189 2.613-.265 3.409-.038.379-.038.72-.076.947v.341a1.188 1.188 0 0 0 .038-.341q.057-.341.114-.909.114-1.25.341-3.409c.265-2.878.568-6.893.909-11.286.3-4.393.53-8.408.682-11.286.076-1.439.114-2.613.151-3.447 0-.379.038-.72.038-.947l-.001-.341z" transform="translate(197.902 -204.554)" style="fill:#3a1393"/>
                                </g>
                            </g>
                        </g>
                        <g data-name="Group 1266">
                            <path data-name="Path 7696" d="M74.346 414.3H65.9v6.211a4.057 4.057 0 0 0 4.053 4.053 4.071 4.071 0 0 0 4.053-3.863z" transform="translate(203.034 -249.533)" style="fill:#455a64"/>
                        </g>
                    </g>
                </g>
            </g>
            <g data-name="Group 11894">
                <path data-name="Rectangle 4363" d="M.359 0h270.082a.359.359 0 0 1 .359.359.359.359 0 0 1-.359.359H.359A.359.359 0 0 1 0 .359.359.359 0 0 1 .359 0z" transform="translate(16.286 174.726)" style="fill:#2e3552"/>
            </g>
        </g>
    </g>
</svg>
