<svg xmlns="http://www.w3.org/2000/svg" xmlns:xlink="http://www.w3.org/1999/xlink" width="200" height="200" viewBox="0 0 200 200">
  <defs>
    <clipPath id="clip-path">
      <rect id="Rectangle_12922" data-name="Rectangle 12922" width="180.987" height="143.09" fill="none"/>
    </clipPath>
    <clipPath id="clip-path-3">
      <rect id="Rectangle_12912" data-name="Rectangle 12912" width="118.35" height="110.462" fill="none"/>
    </clipPath>
    <clipPath id="clip-path-4">
      <rect id="Rectangle_12913" data-name="Rectangle 12913" width="17.698" height="46.297" fill="#ffce1a"/>
    </clipPath>
    <clipPath id="clip-path-5">
      <rect id="Rectangle_12914" data-name="Rectangle 12914" width="17.384" height="17.384" fill="#ffce1a"/>
    </clipPath>
    <clipPath id="clip-path-6">
      <rect id="Rectangle_12915" data-name="Rectangle 12915" width="47.631" height="47.951" fill="none"/>
    </clipPath>
    <clipPath id="clip-path-7">
      <rect id="Rectangle_12916" data-name="Rectangle 12916" width="10.673" height="18.225" fill="#ff5148"/>
    </clipPath>
    <clipPath id="clip-path-8">
      <rect id="Rectangle_12917" data-name="Rectangle 12917" width="7.017" height="7.017" fill="#ff5148"/>
    </clipPath>
    <clipPath id="clip-path-9">
      <rect id="Rectangle_12918" data-name="Rectangle 12918" width="37.613" height="37.508" fill="none"/>
    </clipPath>
    <clipPath id="clip-path-10">
      <rect id="Rectangle_12919" data-name="Rectangle 12919" width="7.56" height="14.486" fill="#3a1593"/>
    </clipPath>
    <clipPath id="clip-path-11">
      <rect id="Rectangle_12920" data-name="Rectangle 12920" width="5.482" height="5.481" fill="#3a1593"/>
    </clipPath>
  </defs>
  <g id="Group_87724" data-name="Group 87724" transform="translate(-80 -164)">
    <g id="Group_87035" data-name="Group 87035">
      <g id="Group_87033" data-name="Group 87033">
        <g id="Group_87030" data-name="Group 87030">
          <g id="Group_87029" data-name="Group 87029">
            <g id="Group_86897" data-name="Group 86897">
              <g id="Group_86896" data-name="Group 86896">
                <g id="Group_86895" data-name="Group 86895">
                  <g id="Group_86822" data-name="Group 86822">
                    <g id="Group_86818" data-name="Group 86818">
                      <g id="Group_86814" data-name="Group 86814">
                        <rect id="Rectangle_11822" data-name="Rectangle 11822" width="200" height="200" rx="8" transform="translate(80 164)" fill="none"/>
                      </g>
                    </g>
                  </g>
                </g>
              </g>
            </g>
          </g>
        </g>
        <path id="Path_88355" data-name="Path 88355" d="M1733.449,395.343A76.449,76.449,0,1,0,1657,318.893,76.448,76.448,0,0,0,1733.449,395.343Z" transform="translate(-1554.333 -52.482)" fill="#fbe3c7"/>
      </g>
    </g>
    <g id="Group_87723" data-name="Group 87723" transform="translate(89.506 201.573)">
      <g id="Group_87722" data-name="Group 87722" clip-path="url(#clip-path)">
        <g id="Group_87721" data-name="Group 87721" transform="translate(0 0)">
          <g id="Group_87720" data-name="Group 87720" clip-path="url(#clip-path)">
            <path id="Path_112438" data-name="Path 112438" d="M62.271,18.5,23.7,106.852a16.674,16.674,0,0,0,16.961,23.263c26.8-2.718,66.953-6.857,94.784-9.733a17.722,17.722,0,0,0,12.212-28.451L88.546,15.266A15.379,15.379,0,0,0,62.271,18.5" transform="translate(9.677 4.028)" fill="#3a1593"/>
            <g id="Group_87695" data-name="Group 87695" transform="translate(36.929 19.703)" opacity="0.5">
              <g id="Group_87694" data-name="Group 87694">
                <g id="Group_87693" data-name="Group 87693" clip-path="url(#clip-path-3)">
                  <path id="Path_112439" data-name="Path 112439" d="M62.752,22.5a2.776,2.776,0,0,1,.318-.863c.129-.275.27-.633.488-1.03q.376-.574.863-1.322c.351-.485.825-.964,1.31-1.528a15.845,15.845,0,0,1,1.888-1.538,13.6,13.6,0,0,1,5.622-2.276,14.52,14.52,0,0,1,7.585.73,14.679,14.679,0,0,1,3.8,2.245l.891.754c.274.278.532.581.8.875.561.592,1.023,1.209,1.516,1.834C91.76,25.395,96.227,31.1,101.162,37.4L135.7,81.8l4.92,6.367a16.857,16.857,0,0,1,3.326,8.008,17.018,17.018,0,0,1-15.251,19.25q-4.372.45-8.809.912l-18,1.853L66.4,121.807l-16.877,1.705-4.114.413-2.041.2-2.176.07a15.709,15.709,0,0,1-8.108-2.55,16.193,16.193,0,0,1-7.324-13.992c.065-.666.065-1.338.191-1.988.143-.647.265-1.3.432-1.932l.668-1.845c.234-.587.489-1.126.733-1.69q1.472-3.337,2.9-6.568l10.605-23.95c6.5-14.634,11.794-26.461,15.5-34.614,1.866-4.049,3.32-7.2,4.319-9.366a21.645,21.645,0,0,1,1.645-3.2,21.85,21.85,0,0,1-1.232,3.385c-.909,2.2-2.232,5.413-3.933,9.534-3.46,8.26-8.533,20.183-14.846,34.9-3.167,7.357-6.634,15.412-10.354,24.059q-1.4,3.242-2.847,6.592c-.235.557-.5,1.124-.711,1.677l-.579,1.631c-.141.561-.238,1.133-.364,1.7-.109.571-.1,1.159-.155,1.74a14.2,14.2,0,0,0,6.476,12.2,13.63,13.63,0,0,0,7.052,2.18l1.9-.069,2.038-.212,4.112-.432,16.87-1.76,35.482-3.666,18-1.842,8.809-.9A14.849,14.849,0,0,0,141.822,96.45a14.755,14.755,0,0,0-2.882-7.018l-4.877-6.375c-12.853-16.817-24.429-31.963-34.156-44.693-4.838-6.375-9.215-12.146-13.064-17.216-.479-.633-.945-1.275-1.434-1.806-.242-.275-.473-.559-.72-.822l-.8-.707a12.974,12.974,0,0,0-10.509-3.006,13.121,13.121,0,0,0-5.39,1.971,16.207,16.207,0,0,0-1.87,1.387c-.486.518-.971.955-1.338,1.4l-.929,1.223c-.244.367-.413.7-.574.954-.308.515-.486.775-.522.759" transform="translate(-25.747 -13.737)" fill="#fff"/>
                </g>
              </g>
            </g>
            <g id="Group_87698" data-name="Group 87698" transform="translate(80.053 42.415)">
              <g id="Group_87697" data-name="Group 87697">
                <g id="Group_87696" data-name="Group 87696" clip-path="url(#clip-path-4)">
                  <path id="Path_112440" data-name="Path 112440" d="M55.873,35.815,61.63,71.024a5.778,5.778,0,0,0,11.479-.868l.4-36A4.534,4.534,0,0,0,68.466,29.6l-8.63.978a4.533,4.533,0,0,0-3.963,5.235" transform="translate(-55.813 -29.572)" fill="#ffce1a"/>
                </g>
              </g>
            </g>
            <g id="Group_87701" data-name="Group 87701" transform="translate(85.261 95.74)">
              <g id="Group_87700" data-name="Group 87700">
                <g id="Group_87699" data-name="Group 87699" clip-path="url(#clip-path-5)">
                  <path id="Path_112441" data-name="Path 112441" d="M76.614,77.353a8.69,8.69,0,1,1-6.566-10.387,8.689,8.689,0,0,1,6.566,10.387" transform="translate(-59.444 -66.75)" fill="#ffce1a"/>
                </g>
              </g>
            </g>
            <path id="Path_112442" data-name="Path 112442" d="M30.913,1.632,2.192,27.9A6.732,6.732,0,0,0,4.634,39.262C14.967,42.656,30.459,47.716,41.2,51.22a7.155,7.155,0,0,0,9.171-8.494L41.137,4.747A6.208,6.208,0,0,0,30.913,1.632" transform="translate(0 0)" fill="#ffce1a"/>
            <g id="Group_87704" data-name="Group 87704" transform="translate(1.818 2.303)" opacity="0.5">
              <g id="Group_87703" data-name="Group 87703">
                <g id="Group_87702" data-name="Group 87702" clip-path="url(#clip-path-6)">
                  <path id="Path_112443" data-name="Path 112443" d="M30.122,3.451c-.033-.03.241-.492,1.08-1.031a5.611,5.611,0,0,1,4.261-.657A6.112,6.112,0,0,1,38.3,3.306a6.8,6.8,0,0,1,1.784,3.389c.657,2.494,1.4,5.32,2.222,8.439,1.6,6.284,3.494,13.739,5.6,22.011q.387,1.56.785,3.158a7.43,7.43,0,0,1-.087,3.824A7.517,7.517,0,0,1,39,49.174l-3.4-1.106L28.657,45.8l-13.683-4.5-6.5-2.154-1.583-.528L6.1,38.363,5.214,38A6.958,6.958,0,0,1,2.4,35.5a7.133,7.133,0,0,1-.42-6.953,7.749,7.749,0,0,1,.958-1.463l.6-.618.555-.5q1.1-.983,2.159-1.935l7.9-7.035C18.985,12.7,22.926,9.258,25.684,6.917s4.333-3.581,4.438-3.467-1.271,1.572-3.848,4.111-6.357,6.159-11.06,10.6L7.5,25.4l-2.12,1.978-.529.5-.432.46a5.816,5.816,0,0,0-.67,1.066,5.135,5.135,0,0,0,.376,4.97,4.878,4.878,0,0,0,2,1.731l.637.254.786.252,1.589.511,6.517,2.1,13.7,4.453,6.939,2.276,3.4,1.117a5.348,5.348,0,0,0,6.86-3.547,5.315,5.315,0,0,0,.089-2.74l-.74-3.148c-1.928-8.315-3.666-15.807-5.13-22.124-.7-3.148-1.338-6-1.9-8.518a5.754,5.754,0,0,0-1.334-2.94,5.321,5.321,0,0,0-2.3-1.446,5.467,5.467,0,0,0-3.822.214c-.839.371-1.221.716-1.291.633" transform="translate(-1.267 -1.606)" fill="#fff"/>
                </g>
              </g>
            </g>
            <g id="Group_87707" data-name="Group 87707" transform="translate(25.912 11.243)">
              <g id="Group_87706" data-name="Group 87706">
                <g id="Group_87705" data-name="Group 87705" clip-path="url(#clip-path-7)">
                  <path id="Path_112444" data-name="Path 112444" d="M21.794,9.206,18.142,23.139A2.333,2.333,0,0,0,22.52,24.7l6.053-13.216a1.829,1.829,0,0,0-1.113-2.507L24.115,7.924a1.83,1.83,0,0,0-2.321,1.282" transform="translate(-18.066 -7.839)" fill="#ff5148"/>
                </g>
              </g>
            </g>
            <g id="Group_87710" data-name="Group 87710" transform="translate(22.089 31.947)">
              <g id="Group_87709" data-name="Group 87709">
                <g id="Group_87708" data-name="Group 87708" clip-path="url(#clip-path-8)">
                  <path id="Path_112445" data-name="Path 112445" d="M21.724,27.878a3.509,3.509,0,1,1-.72-4.91,3.51,3.51,0,0,1,.72,4.91" transform="translate(-15.4 -22.274)" fill="#ff5148"/>
                </g>
              </g>
            </g>
            <path id="Path_112446" data-name="Path 112446" d="M100.4,7.974l-6.516,29.7a5.258,5.258,0,0,0,6.674,6.156c8.124-2.483,20.292-6.226,28.726-8.822a5.59,5.59,0,0,0,2.034-9.551L108.335,5.361a4.851,4.851,0,0,0-7.93,2.613" transform="translate(40.721 1.806)" fill="#ff5148"/>
            <g id="Group_87713" data-name="Group 87713" transform="translate(135.149 7.554)" opacity="0.5">
              <g id="Group_87712" data-name="Group 87712">
                <g id="Group_87711" data-name="Group 87711" clip-path="url(#clip-path-9)">
                  <path id="Path_112447" data-name="Path 112447" d="M101.181,9.207c-.05-.007-.1-.43.182-1.168a4.4,4.4,0,0,1,2.435-2.4,4.863,4.863,0,0,1,2.56-.318,5.463,5.463,0,0,1,2.735,1.373l5.239,4.362c3.867,3.287,8.441,7.179,13.515,11.494q.953.82,1.926,1.661a6.061,6.061,0,0,1,1.735,2.577,6.109,6.109,0,0,1-4.009,7.85l-2.668.828-5.453,1.68-10.763,3.282L103.5,41.968l-1.249.374-.62.186-.763.174a5.661,5.661,0,0,1-3.044-.347,5.792,5.792,0,0,1-3.528-4.425,6.208,6.208,0,0,1-.044-1.42l.109-.687.129-.574q.262-1.121.515-2.206c.683-2.884,1.32-5.575,1.9-8.039,1.182-4.911,2.176-8.877,2.912-11.606s1.215-4.224,1.365-4.191-.04,1.591-.513,4.377-1.232,6.8-2.216,11.76c-.5,2.481-1.05,5.192-1.637,8.1q-.224,1.093-.456,2.219l-.112.557-.063.463a4.281,4.281,0,0,0,.053.928,3.792,3.792,0,0,0,2.347,2.83,3.6,3.6,0,0,0,1.936.188l.491-.119.615-.194,1.245-.392,5.1-1.6L118.722,35l5.456-1.67,2.671-.813a3.94,3.94,0,0,0,2.633-5.046,3.926,3.926,0,0,0-1.107-1.692L126.49,24.1l-13.2-11.857c-1.853-1.7-3.534-3.244-5.021-4.61A3.969,3.969,0,0,0,104.1,6.455a4.256,4.256,0,0,0-2.334,1.79c-.379.6-.485.987-.584.962" transform="translate(-94.227 -5.267)" fill="#fff"/>
                </g>
              </g>
            </g>
            <g id="Group_87716" data-name="Group 87716" transform="translate(145.161 14.6)">
              <g id="Group_87715" data-name="Group 87715">
                <g id="Group_87714" data-name="Group 87714" clip-path="url(#clip-path-10)">
                  <path id="Path_112448" data-name="Path 112448" d="M101.3,12.942l3.94,10.539a1.822,1.822,0,0,0,3.5-.972l-2.084-11.162a1.429,1.429,0,0,0-1.839-1.1l-2.61.832a1.429,1.429,0,0,0-.905,1.863" transform="translate(-101.207 -10.18)" fill="#3a1593"/>
                </g>
              </g>
            </g>
            <g id="Group_87719" data-name="Group 87719" transform="translate(150.213 31.028)">
              <g id="Group_87718" data-name="Group 87718">
                <g id="Group_87717" data-name="Group 87717" clip-path="url(#clip-path-11)">
                  <path id="Path_112449" data-name="Path 112449" d="M110.209,24.444a2.74,2.74,0,1,1-2.668-2.811,2.741,2.741,0,0,1,2.668,2.811" transform="translate(-104.729 -21.633)" fill="#3a1593"/>
                </g>
              </g>
            </g>
            <path id="Path_112450" data-name="Path 112450" d="M16.154,108.29c-.037.036-.394-.3-1.011-.928a12.28,12.28,0,0,1-1.067-1.206,20.147,20.147,0,0,1-1.292-1.7,30.155,30.155,0,0,1-2.754-4.831A31.98,31.98,0,0,1,7.172,86.375a30.3,30.3,0,0,1,.519-5.536,20.059,20.059,0,0,1,.479-2.081,12.18,12.18,0,0,1,.476-1.538,4.853,4.853,0,0,1,.538-1.262c.136.044-.512,1.886-.971,4.967A34.182,34.182,0,0,0,7.86,86.37a34.031,34.031,0,0,0,2.8,12.979,34.033,34.033,0,0,0,2.563,4.815c1.688,2.619,3.038,4.03,2.932,4.126" transform="translate(3.115 32.988)" fill="#263238"/>
            <path id="Path_112451" data-name="Path 112451" d="M26.149,109.621a5.382,5.382,0,0,1-1.228-.777,12.109,12.109,0,0,1-1.34-1.054,20.265,20.265,0,0,1-1.659-1.535A29.971,29.971,0,0,1,18.2,101.69a31.838,31.838,0,0,1-5.02-13.435,29.884,29.884,0,0,1-.186-5.886,19.928,19.928,0,0,1,.247-2.248,12.041,12.041,0,0,1,.32-1.674,5.448,5.448,0,0,1,.416-1.393c.146.03-.35,2.041-.455,5.338a33.072,33.072,0,0,0,.34,5.766,33.554,33.554,0,0,0,4.917,13.155,33.043,33.043,0,0,0,3.524,4.575c2.243,2.421,3.936,3.613,3.845,3.732" transform="translate(5.612 33.464)" fill="#263238"/>
            <path id="Path_112452" data-name="Path 112452" d="M115.157,101.032c-.126-.066.99-2.067,2.258-5.511a48.563,48.563,0,0,0,1.793-6.176,51.985,51.985,0,0,0,1.03-7.8,51.634,51.634,0,0,0-.281-7.86,47.734,47.734,0,0,0-1.192-6.32c-.931-3.55-1.85-5.647-1.721-5.7a6.555,6.555,0,0,1,.731,1.436,32.114,32.114,0,0,1,1.5,4.124A42.211,42.211,0,0,1,120.64,73.6a44.139,44.139,0,0,1-.762,15.895,42.134,42.134,0,0,1-1.971,6.213,32.266,32.266,0,0,1-1.888,3.963,6.769,6.769,0,0,1-.863,1.358" transform="translate(50.008 26.782)" fill="#263238"/>
            <path id="Path_112453" data-name="Path 112453" d="M123.255,96.678c-.123-.065.772-1.7,1.73-4.518a35.185,35.185,0,0,0,1.292-5.05,34.845,34.845,0,0,0-.09-12.695,34.95,34.95,0,0,0-1.367-5.032c-1-2.8-1.915-4.426-1.794-4.492a4.457,4.457,0,0,1,.734,1.087,23.049,23.049,0,0,1,1.555,3.219,30.659,30.659,0,0,1,1.548,5.083,32.339,32.339,0,0,1,.092,12.956,30.476,30.476,0,0,1-1.473,5.1,22.8,22.8,0,0,1-1.507,3.24,4.452,4.452,0,0,1-.719,1.1" transform="translate(53.425 28.182)" fill="#263238"/>
          </g>
        </g>
      </g>
    </g>
  </g>
</svg>
