<svg xmlns="http://www.w3.org/2000/svg" width="24" height="24" viewBox="0 0 24 24">
    <g data-name="Group 85520">
        <path data-name="Rectangle 10707" style="fill:none" d="M0 0h24v24H0z"/>
        <path data-name="Rectangle 10708" transform="translate(2 2)" style="fill:none" d="M0 0h20v20H0z"/>
        <g data-name="Group 11970">
            <path d="M11 4.5a10.752 10.752 0 0 0-10 6.818 10.742 10.742 0 0 0 20 0A10.752 10.752 0 0 0 11 4.5zm0 11.364a4.545 4.545 0 1 1 4.545-4.545A4.547 4.547 0 0 1 11 15.864zm0-7.273a2.727 2.727 0 1 0 2.727 2.727A2.724 2.724 0 0 0 11 8.591z" transform="translate(1 .638)" style="fill:#dbdbdb"/>
            <g data-name="Group 2568">
                <path data-name="Rectangle 2373" transform="rotate(40 5.987 26.893)" style="fill:#dbdbdb" d="M0 0h2.727v22.727H0z"/>
                <path data-name="Rectangle 2374" transform="rotate(40 6.102 26.604)" style="fill:#f7f7f7" d="M0 0h.909v22.733H0z"/>
            </g>
        </g>
    </g>
</svg>
