<svg xmlns="http://www.w3.org/2000/svg" xmlns:xlink="http://www.w3.org/1999/xlink" width="320" height="200" viewBox="0 0 320 200">
  <defs>
    <linearGradient id="linear-gradient" x1="0.5" x2="0.5" y2="1" gradientUnits="objectBoundingBox">
      <stop offset="0" stop-color="#f4f6ff"/>
      <stop offset="0.695" stop-color="#f8f9ff"/>
      <stop offset="1" stop-color="#fff"/>
    </linearGradient>
  </defs>
  <g id="Group_11997" data-name="Group 11997" transform="translate(-20 -286)">
    <g id="Group_11993" data-name="Group 11993" transform="translate(0 37)">
      <g id="Group_11990" data-name="Group 11990">
        <rect id="Rectangle_5806" data-name="Rectangle 5806" width="320" height="200" transform="translate(20 249)" fill="#fff"/>
      </g>
      <g id="Oops_Something_went_wrong-2" data-name="Oops Something went wrong-2" transform="translate(786.148 383.398)" style="isolation: isolate">
        <g id="Group_11998" data-name="Group 11998" style="isolation: isolate">
          <path id="Path_36507" data-name="Path 36507" d="M-695.1,13.848a4.141,4.141,0,0,1-1.541-1.8,5.968,5.968,0,0,1-.509-2.488,5.947,5.947,0,0,1,.509-2.485,4.139,4.139,0,0,1,1.541-1.8,4.544,4.544,0,0,1,2.536-.674,4.545,4.545,0,0,1,2.537.674,4.139,4.139,0,0,1,1.541,1.8,5.963,5.963,0,0,1,.509,2.485,5.984,5.984,0,0,1-.509,2.488,4.141,4.141,0,0,1-1.541,1.8,4.553,4.553,0,0,1-2.537.673A4.552,4.552,0,0,1-695.1,13.848Zm4.263-1.125a2.821,2.821,0,0,0,.994-1.316,5.14,5.14,0,0,0,.315-1.849,5.144,5.144,0,0,0-.315-1.849,2.8,2.8,0,0,0-.994-1.312,2.886,2.886,0,0,0-1.727-.489,2.885,2.885,0,0,0-1.726.489,2.8,2.8,0,0,0-.994,1.312,5.144,5.144,0,0,0-.315,1.849,5.14,5.14,0,0,0,.315,1.849,2.821,2.821,0,0,0,.994,1.316,2.873,2.873,0,0,0,1.726.492A2.873,2.873,0,0,0-690.835,12.723Z"/>
          <path id="Path_36508" data-name="Path 36508" d="M-685.063,14.042a3.282,3.282,0,0,1-1.214-1.3,3.772,3.772,0,0,1-.431-1.788,3.716,3.716,0,0,1,.431-1.773A3.241,3.241,0,0,1-685.063,7.9a3.386,3.386,0,0,1,1.787-.472,3.392,3.392,0,0,1,1.788.472,3.27,3.27,0,0,1,1.217,1.282,3.7,3.7,0,0,1,.434,1.773,3.752,3.752,0,0,1-.434,1.788,3.311,3.311,0,0,1-1.217,1.3,3.351,3.351,0,0,1-1.788.479A3.345,3.345,0,0,1-685.063,14.042Zm2.874-1.059a1.894,1.894,0,0,0,.663-.848,3.064,3.064,0,0,0,.219-1.176,3,3,0,0,0-.219-1.166,1.866,1.866,0,0,0-.663-.83,1.864,1.864,0,0,0-1.087-.307,1.847,1.847,0,0,0-1.083.307,1.873,1.873,0,0,0-.66.83,3,3,0,0,0-.219,1.166,3.062,3.062,0,0,0,.219,1.18,1.907,1.907,0,0,0,.66.844,1.814,1.814,0,0,0,1.083.314A1.831,1.831,0,0,0-682.189,12.983Z"/>
          <path id="Path_36509" data-name="Path 36509" d="M-678.187,7.562h1.456v.957a2.211,2.211,0,0,1,.9-.807,2.7,2.7,0,0,1,1.213-.28,2.6,2.6,0,0,1,1.566.479A3,3,0,0,1-672.045,9.2a4.492,4.492,0,0,1,.345,1.78,4.492,4.492,0,0,1-.345,1.78,2.951,2.951,0,0,1-1.012,1.285,2.644,2.644,0,0,1-1.582.476,2.671,2.671,0,0,1-1.2-.276,2.2,2.2,0,0,1-.889-.811v3.787h-1.456Zm4.235,5.38a1.768,1.768,0,0,0,.619-.807,3.1,3.1,0,0,0,.205-1.155,3.066,3.066,0,0,0-.205-1.155,1.755,1.755,0,0,0-.619-.8,1.719,1.719,0,0,0-1.015-.29,1.784,1.784,0,0,0-1.029.29,1.809,1.809,0,0,0-.646.8,2.881,2.881,0,0,0-.219,1.155,2.912,2.912,0,0,0,.219,1.155,1.82,1.82,0,0,0,.646.807,1.771,1.771,0,0,0,1.029.294A1.707,1.707,0,0,0-673.952,12.942Z"/>
          <path id="Path_36510" data-name="Path 36510" d="M-669.226,14.272a2.949,2.949,0,0,1-.991-.678,2.481,2.481,0,0,1-.578-.953l1.135-.5a2.035,2.035,0,0,0,.581.851,1.546,1.546,0,0,0,1.053.345,1.6,1.6,0,0,0,.693-.136,1.031,1.031,0,0,0,.428-.356.836.836,0,0,0,.143-.465.6.6,0,0,0-.184-.455,1.345,1.345,0,0,0-.465-.276q-.281-.1-.779-.233a8.559,8.559,0,0,1-1.125-.358,1.918,1.918,0,0,1-.745-.56,1.564,1.564,0,0,1-.311-1.023,1.858,1.858,0,0,1,.335-1.118,2.054,2.054,0,0,1,.9-.693,3.186,3.186,0,0,1,1.238-.233,2.9,2.9,0,0,1,1.5.383,2.768,2.768,0,0,1,1.032,1.08l-1.094.595a1.614,1.614,0,0,0-1.483-.937,1.3,1.3,0,0,0-.776.209.629.629,0,0,0-.291.53.525.525,0,0,0,.175.4,1.351,1.351,0,0,0,.441.26q.266.1.731.228a8.648,8.648,0,0,1,1.176.4,2.039,2.039,0,0,1,.789.618,1.733,1.733,0,0,1,.332,1.114,2.019,2.019,0,0,1-.362,1.221,2.207,2.207,0,0,1-.951.741,3.257,3.257,0,0,1-1.271.246A3.2,3.2,0,0,1-669.226,14.272Z"/>
          <path id="Path_36511" data-name="Path 36511" d="M-663.32,12.682h1.545v1.709h-1.545Zm.075-7.95h1.394l-.157,6.8h-1.073Z"/>
          <path id="Path_36512" data-name="Path 36512" d="M-654.35,14.176a3.327,3.327,0,0,1-1.285-.943,3.078,3.078,0,0,1-.667-1.515l1.456-.369a1.97,1.97,0,0,0,.694,1.37,2.257,2.257,0,0,0,1.46.469,2.257,2.257,0,0,0,.953-.188,1.428,1.428,0,0,0,.619-.513,1.3,1.3,0,0,0,.212-.728,1.19,1.19,0,0,0-.274-.79,2.217,2.217,0,0,0-.683-.536,12.056,12.056,0,0,0-1.114-.485,12.2,12.2,0,0,1-1.409-.636,2.813,2.813,0,0,1-.912-.81,2.139,2.139,0,0,1-.38-1.3,2.457,2.457,0,0,1,.39-1.385,2.512,2.512,0,0,1,1.056-.9,3.428,3.428,0,0,1,1.466-.311,3.4,3.4,0,0,1,1.662.406A3.142,3.142,0,0,1-649.9,6.25L-651.113,7a2.106,2.106,0,0,0-.718-.813,1.785,1.785,0,0,0-.984-.28,1.592,1.592,0,0,0-.711.157,1.228,1.228,0,0,0-.5.434,1.125,1.125,0,0,0-.181.626,1.01,1.01,0,0,0,.256.7,2.117,2.117,0,0,0,.643.478q.385.192,1.063.451a14.027,14.027,0,0,1,1.459.657,2.828,2.828,0,0,1,.954.844,2.279,2.279,0,0,1,.4,1.377,2.648,2.648,0,0,1-.435,1.511,2.827,2.827,0,0,1-1.186,1,3.864,3.864,0,0,1-1.661.353A4.21,4.21,0,0,1-654.35,14.176Z"/>
          <path id="Path_36513" data-name="Path 36513" d="M-646.793,14.042a3.283,3.283,0,0,1-1.214-1.3,3.773,3.773,0,0,1-.431-1.788,3.716,3.716,0,0,1,.431-1.773A3.242,3.242,0,0,1-646.793,7.9a3.388,3.388,0,0,1,1.787-.472,3.392,3.392,0,0,1,1.788.472A3.27,3.27,0,0,1-642,9.186a3.7,3.7,0,0,1,.434,1.773A3.752,3.752,0,0,1-642,12.747a3.312,3.312,0,0,1-1.217,1.3,3.351,3.351,0,0,1-1.788.479A3.348,3.348,0,0,1-646.793,14.042Zm2.874-1.059a1.894,1.894,0,0,0,.663-.848,3.064,3.064,0,0,0,.219-1.176,3,3,0,0,0-.219-1.166,1.866,1.866,0,0,0-.663-.83,1.864,1.864,0,0,0-1.087-.307,1.846,1.846,0,0,0-1.083.307,1.873,1.873,0,0,0-.66.83,3,3,0,0,0-.219,1.166,3.062,3.062,0,0,0,.219,1.18,1.907,1.907,0,0,0,.66.844,1.814,1.814,0,0,0,1.083.314A1.831,1.831,0,0,0-643.919,12.983Z"/>
          <path id="Path_36514" data-name="Path 36514" d="M-639.931,7.562h1.36v.964a1.919,1.919,0,0,1,.8-.83,2.362,2.362,0,0,1,1.121-.264,2.429,2.429,0,0,1,1.237.315,1.862,1.862,0,0,1,.807.991,2.415,2.415,0,0,1,.937-.985,2.567,2.567,0,0,1,1.271-.321,2.266,2.266,0,0,1,1.357.39,2.3,2.3,0,0,1,.8,1.042,3.9,3.9,0,0,1,.26,1.46v4.067h-1.415V10.5a2.373,2.373,0,0,0-.3-1.292,1.09,1.09,0,0,0-.988-.458,1.467,1.467,0,0,0-.827.236,1.546,1.546,0,0,0-.547.642,2.12,2.12,0,0,0-.192.913v3.849h-1.415V10.4a2.121,2.121,0,0,0-.3-1.207,1.093,1.093,0,0,0-.971-.441,1.5,1.5,0,0,0-.838.236,1.545,1.545,0,0,0-.55.642,2.134,2.134,0,0,0-.191.913v3.849h-1.415Z"/>
          <path id="Path_36515" data-name="Path 36515" d="M-626.981,14.045a3,3,0,0,1-1.142-1.274,4.034,4.034,0,0,1-.383-1.764,4.267,4.267,0,0,1,.366-1.766,3.062,3.062,0,0,1,1.1-1.313,3.119,3.119,0,0,1,1.788-.5,2.99,2.99,0,0,1,1.794.5,2.84,2.84,0,0,1,1,1.269,4.255,4.255,0,0,1,.3,1.579c0,.128-.006.253-.017.376a1.717,1.717,0,0,1-.038.259h-4.806a2.2,2.2,0,0,0,.564,1.34,1.763,1.763,0,0,0,1.323.479,2.472,2.472,0,0,0,.954-.178,2.322,2.322,0,0,0,.81-.595l.97.855a3.735,3.735,0,0,1-1.233.909,3.7,3.7,0,0,1-1.508.294A3.4,3.4,0,0,1-626.981,14.045Zm3.431-3.653a1.338,1.338,0,0,0-.041-.431,1.6,1.6,0,0,0-.547-.97,1.687,1.687,0,0,0-1.128-.369,1.536,1.536,0,0,0-1.2.478,2.372,2.372,0,0,0-.551,1.292Z"/>
          <path id="Path_36516" data-name="Path 36516" d="M-619.688,13.981a2.019,2.019,0,0,1-.537-1.49V8.751h-1.121V7.562h1.142V5.771l1.388-1.012v2.8h1.777V8.751h-1.777v3.5a1.113,1.113,0,0,0,.225.783.855.855,0,0,0,.65.236,2.2,2.2,0,0,0,.895-.219l.007,1.279a3.431,3.431,0,0,1-.52.133,3.513,3.513,0,0,1-.629.058A2.021,2.021,0,0,1-619.688,13.981Z"/>
          <path id="Path_36517" data-name="Path 36517" d="M-615.574,4.732h1.436V8.478a2.347,2.347,0,0,1,.9-.782,2.512,2.512,0,0,1,1.128-.264,2.379,2.379,0,0,1,1.378.383,2.281,2.281,0,0,1,.823,1.012,3.6,3.6,0,0,1,.274,1.387v4.177h-1.436V10.426a2.182,2.182,0,0,0-.314-1.254,1.2,1.2,0,0,0-1.067-.455,1.558,1.558,0,0,0-.919.267,1.629,1.629,0,0,0-.571.735,2.818,2.818,0,0,0-.191,1.07v3.6h-1.436Z"/>
          <path id="Path_36518" data-name="Path 36518" d="M-607.607,4.732h1.477v1.49h-1.477Zm.034,2.83h1.408v6.829h-1.408Z"/>
          <path id="Path_36519" data-name="Path 36519" d="M-603.906,7.562h1.408v.916a2.315,2.315,0,0,1,.909-.782,2.6,2.6,0,0,1,1.142-.264,2.34,2.34,0,0,1,1.37.383,2.253,2.253,0,0,1,.81,1.012A3.658,3.658,0,0,1-598,10.214v4.177h-1.408V10.426a1.888,1.888,0,0,0-.373-1.23,1.288,1.288,0,0,0-1.063-.458,1.6,1.6,0,0,0-1.217.458,1.9,1.9,0,0,0-.437,1.36v3.835h-1.408Z"/>
          <path id="Path_36520" data-name="Path 36520" d="M-591.6,13.694a2.106,2.106,0,0,1,.933.57,1.57,1.57,0,0,1,.376,1.118,1.93,1.93,0,0,1-.382,1.21,2.3,2.3,0,0,1-1.053.748,4.336,4.336,0,0,1-1.525.25,4.49,4.49,0,0,1-1.743-.3,2.435,2.435,0,0,1-1.1-.844,2.14,2.14,0,0,1-.372-1.244,1.657,1.657,0,0,1,.027-.294l.875-.759a1.427,1.427,0,0,1-.745-1.326,1.689,1.689,0,0,1,.67-1.374,2.339,2.339,0,0,1-.424-.714,2.4,2.4,0,0,1-.151-.845,2.249,2.249,0,0,1,.37-1.264,2.525,2.525,0,0,1,.991-.875,2.979,2.979,0,0,1,1.367-.315,2.982,2.982,0,0,1,1.654.472l1.005-.868.738.909-.963.793a2.425,2.425,0,0,1,.314,1.217,2.284,2.284,0,0,1-.362,1.278,2.4,2.4,0,0,1-.981.854,3.058,3.058,0,0,1-1.357.3,3.044,3.044,0,0,1-1.347-.294.65.65,0,0,0-.239.2.494.494,0,0,0-.075.274.489.489,0,0,0,.2.417,1.367,1.367,0,0,0,.54.218q.334.069.984.151l.363.048A9.069,9.069,0,0,1-591.6,13.694Zm-.468,2.553a.783.783,0,0,0,.438-.714.586.586,0,0,0-.209-.479,1.423,1.423,0,0,0-.591-.257q-.384-.084-1.067-.167l-.447-.047a6.574,6.574,0,0,1-.749-.124l-.506.732a1.791,1.791,0,0,0,.034.2,1.18,1.18,0,0,0,.629.83,2.636,2.636,0,0,0,1.272.278A2.41,2.41,0,0,0-592.064,16.247ZM-594.4,8.909a1.4,1.4,0,0,0-.355.991,1.348,1.348,0,0,0,.352.971,1.272,1.272,0,0,0,.967.369,1.24,1.24,0,0,0,.953-.369,1.365,1.365,0,0,0,.346-.971,1.417,1.417,0,0,0-.349-.995,1.229,1.229,0,0,0-.95-.379A1.252,1.252,0,0,0-594.4,8.909Z"/>
          <path id="Path_36521" data-name="Path 36521" d="M-586.016,7.562h1.5l1.279,4.676,1.469-4.676h1.224l1.47,4.669,1.285-4.669h1.511l-2.079,6.829h-1.285l-1.51-4.847-1.525,4.847h-1.278Z"/>
          <path id="Path_36522" data-name="Path 36522" d="M-574.18,14.045a3.01,3.01,0,0,1-1.142-1.274,4.034,4.034,0,0,1-.383-1.764,4.266,4.266,0,0,1,.366-1.766,3.057,3.057,0,0,1,1.1-1.313,3.116,3.116,0,0,1,1.787-.5,3,3,0,0,1,1.795.5,2.845,2.845,0,0,1,1,1.269,4.254,4.254,0,0,1,.3,1.579c0,.128-.006.253-.017.376a1.6,1.6,0,0,1-.038.259h-4.8a2.2,2.2,0,0,0,.564,1.34,1.762,1.762,0,0,0,1.322.479,2.472,2.472,0,0,0,.954-.178,2.3,2.3,0,0,0,.81-.595l.971.855a3.748,3.748,0,0,1-1.234.909,3.7,3.7,0,0,1-1.507.294A3.4,3.4,0,0,1-574.18,14.045Zm3.431-3.653a1.31,1.31,0,0,0-.041-.431,1.6,1.6,0,0,0-.546-.97,1.691,1.691,0,0,0-1.128-.369,1.537,1.537,0,0,0-1.2.478,2.363,2.363,0,0,0-.55,1.292Z"/>
          <path id="Path_36523" data-name="Path 36523" d="M-567.683,7.562h1.408v.916a2.322,2.322,0,0,1,.909-.782,2.6,2.6,0,0,1,1.142-.264,2.34,2.34,0,0,1,1.37.383,2.261,2.261,0,0,1,.811,1.012,3.677,3.677,0,0,1,.266,1.387v4.177h-1.408V10.426a1.889,1.889,0,0,0-.373-1.23,1.288,1.288,0,0,0-1.063-.458,1.6,1.6,0,0,0-1.216.458,1.9,1.9,0,0,0-.438,1.36v3.835h-1.408Z"/>
          <path id="Path_36524" data-name="Path 36524" d="M-558.914,13.981a2.023,2.023,0,0,1-.536-1.49V8.751h-1.121V7.562h1.141V5.771l1.388-1.012v2.8h1.777V8.751h-1.777v3.5a1.108,1.108,0,0,0,.226.783.851.851,0,0,0,.649.236,2.2,2.2,0,0,0,.9-.219l.006,1.279a3.415,3.415,0,0,1-.519.133,3.531,3.531,0,0,1-.629.058A2.022,2.022,0,0,1-558.914,13.981Z"/>
          <path id="Path_36525" data-name="Path 36525" d="M-551.912,7.562h1.5l1.279,4.676,1.469-4.676h1.224l1.47,4.669,1.285-4.669h1.511l-2.079,6.829h-1.285l-1.51-4.847-1.525,4.847h-1.278Z"/>
          <path id="Path_36526" data-name="Path 36526" d="M-540.828,7.562h1.374V8.806A1.986,1.986,0,0,1-539,8.057a2.01,2.01,0,0,1,.687-.468,2.092,2.092,0,0,1,.79-.157,1.911,1.911,0,0,1,.646.11,1.447,1.447,0,0,1,.536.328l-.642,1.162a1.377,1.377,0,0,0-.752-.226,1.468,1.468,0,0,0-.834.267,1.883,1.883,0,0,0-.646.83,3.471,3.471,0,0,0-.25,1.4v3.083h-1.36Z"/>
          <path id="Path_36527" data-name="Path 36527" d="M-534.54,14.042a3.28,3.28,0,0,1-1.213-1.3,3.773,3.773,0,0,1-.431-1.788,3.716,3.716,0,0,1,.431-1.773A3.239,3.239,0,0,1-534.54,7.9a3.392,3.392,0,0,1,1.788-.472,3.392,3.392,0,0,1,1.788.472,3.261,3.261,0,0,1,1.216,1.282,3.685,3.685,0,0,1,.435,1.773,3.741,3.741,0,0,1-.435,1.788,3.3,3.3,0,0,1-1.216,1.3,3.351,3.351,0,0,1-1.788.479A3.351,3.351,0,0,1-534.54,14.042Zm2.875-1.059a1.9,1.9,0,0,0,.663-.848,3.064,3.064,0,0,0,.219-1.176A3,3,0,0,0-531,9.793a1.866,1.866,0,0,0-.663-.83,1.864,1.864,0,0,0-1.087-.307,1.845,1.845,0,0,0-1.083.307,1.873,1.873,0,0,0-.66.83,3,3,0,0,0-.219,1.166,3.062,3.062,0,0,0,.219,1.18,1.907,1.907,0,0,0,.66.844,1.812,1.812,0,0,0,1.083.314A1.831,1.831,0,0,0-531.665,12.983Z"/>
          <path id="Path_36528" data-name="Path 36528" d="M-527.677,7.562h1.408v.916a2.315,2.315,0,0,1,.909-.782,2.6,2.6,0,0,1,1.142-.264,2.34,2.34,0,0,1,1.37.383,2.253,2.253,0,0,1,.81,1.012,3.658,3.658,0,0,1,.267,1.387v4.177h-1.408V10.426a1.888,1.888,0,0,0-.373-1.23,1.288,1.288,0,0,0-1.063-.458,1.6,1.6,0,0,0-1.217.458,1.9,1.9,0,0,0-.437,1.36v3.835h-1.408Z"/>
          <path id="Path_36529" data-name="Path 36529" d="M-515.367,13.694a2.111,2.111,0,0,1,.933.57,1.57,1.57,0,0,1,.376,1.118,1.936,1.936,0,0,1-.382,1.21,2.3,2.3,0,0,1-1.053.748,4.332,4.332,0,0,1-1.525.25,4.493,4.493,0,0,1-1.743-.3,2.435,2.435,0,0,1-1.1-.844,2.14,2.14,0,0,1-.372-1.244,1.657,1.657,0,0,1,.027-.294l.875-.759a1.427,1.427,0,0,1-.745-1.326,1.689,1.689,0,0,1,.67-1.374,2.339,2.339,0,0,1-.424-.714,2.4,2.4,0,0,1-.151-.845,2.249,2.249,0,0,1,.37-1.264,2.525,2.525,0,0,1,.991-.875,2.979,2.979,0,0,1,1.367-.315A2.98,2.98,0,0,1-515.6,7.9l1.005-.868.738.909-.963.793a2.415,2.415,0,0,1,.314,1.217,2.284,2.284,0,0,1-.362,1.278,2.393,2.393,0,0,1-.982.854,3.05,3.05,0,0,1-1.356.3,3.044,3.044,0,0,1-1.347-.294.65.65,0,0,0-.239.2.494.494,0,0,0-.075.274.489.489,0,0,0,.2.417,1.367,1.367,0,0,0,.54.218c.223.046.552.1.984.151l.363.048A9.045,9.045,0,0,1-515.367,13.694Zm-.468,2.553a.783.783,0,0,0,.438-.714.588.588,0,0,0-.208-.479,1.434,1.434,0,0,0-.592-.257q-.383-.084-1.067-.167l-.447-.047a6.574,6.574,0,0,1-.749-.124l-.506.732a1.791,1.791,0,0,0,.034.2,1.18,1.18,0,0,0,.629.83,2.636,2.636,0,0,0,1.272.278A2.413,2.413,0,0,0-515.835,16.247Zm-2.331-7.338a1.4,1.4,0,0,0-.355.991,1.348,1.348,0,0,0,.352.971,1.272,1.272,0,0,0,.967.369,1.245,1.245,0,0,0,.954-.369A1.369,1.369,0,0,0-515.9,9.9a1.417,1.417,0,0,0-.349-.995,1.229,1.229,0,0,0-.95-.379A1.253,1.253,0,0,0-518.166,8.909Z"/>
        </g>
      </g>
    </g>
    <g id="Group_11996" data-name="Group 11996" transform="translate(0 124)">
      <circle id="Ellipse_1527" data-name="Ellipse 1527" cx="46" cy="46" r="46" transform="translate(134 194)" fill="url(#linear-gradient)"/>
      <g id="Group_11995" data-name="Group 11995" transform="translate(146.651 -117.153) rotate(45)">
        <line id="Line_650" data-name="Line 650" x2="14" transform="translate(246.5 232.5)" fill="none" stroke="#3a1593" stroke-linecap="round" stroke-width="2"/>
        <line id="Line_653" data-name="Line 653" x2="14" transform="translate(253.5 225.5) rotate(90)" fill="none" stroke="#3a1593" stroke-linecap="round" stroke-width="2"/>
      </g>
      <g id="Group_11994" data-name="Group 11994" transform="translate(166.68 -134.124) rotate(45)">
        <line id="Line_651" data-name="Line 651" x2="14" transform="translate(270.5 232.5)" fill="none" stroke="#3a1593" stroke-linecap="round" stroke-width="2"/>
        <line id="Line_652" data-name="Line 652" x2="14" transform="translate(277.5 225.5) rotate(90)" fill="none" stroke="#3a1593" stroke-linecap="round" stroke-width="2"/>
      </g>
      <path id="Path_36506" data-name="Path 36506" d="M-274.2,16421.08s13.386-5.217,26.4-5.217,25.65,5.217,25.65,5.217" transform="translate(428.174 -16165)" fill="none" stroke="#3a1593" stroke-linecap="round" stroke-width="2"/>
    </g>
  </g>
</svg>
